<svg width="798" height="600" fill="none" xmlns="http://www.w3.org/2000/svg"><path fill-rule="evenodd" clip-rule="evenodd" d="M498 200c55.228 0 100-44.772 100-100S553.228 0 498 0 398 44.772 398 100s44.772 100 100 100zm0-44c30.928 0 56-25.072 56-56s-25.072-56-56-56-56 25.072-56 56 25.072 56 56 56z" fill="#F25F5C"/><path fill-rule="evenodd" clip-rule="evenodd" d="M698 200c55.228 0 100-44.772 100-100S753.228 0 698 0 598 44.772 598 100s44.772 100 100 100zm0-44c30.928 0 56-25.072 56-56s-25.072-56-56-56-56 25.072-56 56 25.072 56 56 56z" fill="#C4C4C4"/><mask id="a" maskUnits="userSpaceOnUse" x="201" y="400" width="200" height="200"><circle cx="301" cy="500" r="100" fill="#C4C4C4"/></mask><g mask="url(#a)"><path fill="#C4C4C4" d="M28 342h273v345H28z"/></g><mask id="c" maskUnits="userSpaceOnUse" x="598" y="0" width="100" height="200"><mask id="b" maskUnits="userSpaceOnUse" x="598" y="0" width="200" height="200"><circle cx="698" cy="100" r="100" fill="#FFE066"/></mask><g mask="url(#b)"><path fill="#FFE066" d="M425-58h273v345H425z"/></g></mask><g mask="url(#c)"><path fill="#FFE066" d="M494 100h335v207H494z"/></g><mask id="e" maskUnits="userSpaceOnUse" x="0" y="500" width="200" height="100"><mask id="d" maskUnits="userSpaceOnUse" x="0" y="400" width="200" height="200"><circle cx="100" cy="500" r="100" transform="rotate(-90 100 500)" fill="#C4C4C4"/></mask><g mask="url(#d)"><path transform="rotate(-90 -58 773)" fill="#C4C4C4" d="M-58 773h273v345H-58z"/></g></mask><g mask="url(#e)"><path fill="#C4C4C4" d="M100 704V369h207v335z"/></g><mask id="f" maskUnits="userSpaceOnUse" x="1" y="400" width="200" height="200"><path fill-rule="evenodd" clip-rule="evenodd" d="M101 600c55.228 0 100-44.772 100-100s-44.772-100-100-100S1 444.772 1 500s44.772 100 100 100zm0-44c30.928 0 56-25.072 56-56s-25.072-56-56-56-56 25.072-56 56 25.072 56 56 56z" fill="#C4C4C4"/></mask><g mask="url(#f)"><path fill="#247BA0" d="M-27 363h269v137H-27z"/></g><mask id="g" maskUnits="userSpaceOnUse" x="398" y="199" width="200" height="200"><path fill-rule="evenodd" clip-rule="evenodd" d="M498 399c55.228 0 100-44.772 100-100s-44.772-100-100-100-100 44.772-100 100 44.772 100 100 100zm0-44c30.928 0 56-25.072 56-56s-25.072-56-56-56-56 25.072-56 56 25.072 56 56 56z" fill="#247BA0"/></mask><g mask="url(#g)"><path fill="#247BA0" d="M370 162h269v137H370z"/></g><mask id="i" maskUnits="userSpaceOnUse" x="299" y="400" width="100" height="200"><mask id="h" maskUnits="userSpaceOnUse" x="199" y="400" width="200" height="200"><path fill-rule="evenodd" clip-rule="evenodd" d="M199 500c0 55.228 44.772 100 100 100s100-44.772 100-100-44.772-100-100-100-100 44.772-100 100zm44 0c0 30.928 25.072 56 56 56s56-25.072 56-56-25.072-56-56-56-56 25.072-56 56z" fill="#FFE066"/></mask><g mask="url(#h)"><path transform="rotate(90 436 372)" fill="#FFE066" d="M436 372h269v137H436z"/></g></mask><g mask="url(#i)"><path fill="#FFE066" d="M451 370v130H265V370z"/></g><path fill-rule="evenodd" clip-rule="evenodd" d="M798 399H598v200h200V399zm-44 44H642v112h112V443z" fill="#70C1B3"/><mask id="j" maskUnits="userSpaceOnUse" x="399" y="199" width="200" height="200"><path transform="rotate(-45 399 299)" fill="#828282" d="M399 299h141.421v141.421H399z"/></mask><g mask="url(#j)"><path fill="#247BA0" d="M269.897 299h459.619v106.066H269.897z"/></g><mask id="k" maskUnits="userSpaceOnUse" x="598" y="199" width="200" height="200"><path transform="rotate(135 798 299)" fill="#828282" d="M798 299h141.421v141.421H798z"/></mask><g mask="url(#k)"><path fill="#50514F" d="M927.103 299H467.484V192.934h459.619z"/></g><circle cx="498" cy="500" r="100" fill="#FFE066"/><path fill-rule="evenodd" clip-rule="evenodd" d="M798 299h-44v56H642v-56h-44v100h200V299zM798 500h-44v56H642v-56h-44v100h200V500zM0 500h44v56h56v44H0V500zM299 600v-44h56v-56h44v100H299z" fill="#C4C4C4"/><path fill="#C4C4C4" d="M200 199h200v200H200z"/></svg>